<svg width="25" height="25" viewBox="0 0 25 25" fill="none" xmlns="http://www.w3.org/2000/svg">
<g id="delete">
<mask id="mask0_155_4525" style="mask-type:alpha" maskUnits="userSpaceOnUse" x="0" y="0" width="25" height="25">
<rect id="Bounding box" x="0.5" y="0.5" width="24" height="24" fill="#D9D9D9"/>
</mask>
<g mask="url(#mask0_155_4525)">
<path id="delete_2" d="M7.5 21.5C6.95 21.5 6.47917 21.3042 6.0875 20.9125C5.69583 20.5208 5.5 20.05 5.5 19.5V6.5H4.5V4.5H9.5V3.5H15.5V4.5H20.5V6.5H19.5V19.5C19.5 20.05 19.3042 20.5208 18.9125 20.9125C18.5208 21.3042 18.05 21.5 17.5 21.5H7.5ZM17.5 6.5H7.5V19.5H17.5V6.5ZM9.5 17.5H11.5V8.5H9.5V17.5ZM13.5 17.5H15.5V8.5H13.5V17.5Z" fill="#DA3134"/>
</g>
</g>
</svg>
