<svg width="24" height="24" viewBox="0 0 24 24" fill="none" xmlns="http://www.w3.org/2000/svg">
<path d="M12 24C10.5333 24 9.27778 23.4778 8.23333 22.4333C7.18889 21.3889 6.66667 20.1333 6.66667 18.6667H0.3C0.211111 18.3111 0.138889 17.9056 0.0833333 17.45C0.0277778 16.9944 0 16.5111 0 16C0.0444444 12.8889 1.07778 10.2056 3.1 7.95C5.12222 5.69444 7.64444 4.4 10.6667 4.06667V0H13.3333V4.06667C16.3556 4.4 18.8778 5.69444 20.9 7.95C22.9222 10.2056 23.9556 12.8889 24 16C24 16.5111 23.9722 16.9944 23.9167 17.45C23.8611 17.9056 23.7889 18.3111 23.7 18.6667H17.3333C17.3333 20.1333 16.8111 21.3889 15.7667 22.4333C14.7222 23.4778 13.4667 24 12 24ZM2.66667 16H21.3333C21.3333 13.4222 20.4222 11.2222 18.6 9.4C16.7778 7.57778 14.5778 6.66667 12 6.66667C9.42222 6.66667 7.22222 7.57778 5.4 9.4C3.57778 11.2222 2.66667 13.4222 2.66667 16ZM12 21.3333C12.7333 21.3333 13.3611 21.0722 13.8833 20.55C14.4056 20.0278 14.6667 19.4 14.6667 18.6667H9.33333C9.33333 19.4 9.59445 20.0278 10.1167 20.55C10.6389 21.0722 11.2667 21.3333 12 21.3333Z" fill="white"/>
</svg>
