<svg width="20" height="24" viewBox="0 0 20 24" fill="none" xmlns="http://www.w3.org/2000/svg">
<path d="M4.66663 20C4.28885 20 3.97218 19.8722 3.71663 19.6167C3.46107 19.3611 3.33329 19.0444 3.33329 18.6667C3.33329 18.2889 3.46107 17.9722 3.71663 17.7167C3.97218 17.4611 4.28885 17.3333 4.66663 17.3333C5.0444 17.3333 5.36107 17.4611 5.61663 17.7167C5.87218 17.9722 5.99996 18.2889 5.99996 18.6667C5.99996 19.0444 5.87218 19.3611 5.61663 19.6167C5.36107 19.8722 5.0444 20 4.66663 20ZM9.99996 20C9.62218 20 9.30551 19.8722 9.04996 19.6167C8.7944 19.3611 8.66663 19.0444 8.66663 18.6667C8.66663 18.2889 8.7944 17.9722 9.04996 17.7167C9.30551 17.4611 9.62218 17.3333 9.99996 17.3333C10.3777 17.3333 10.6944 17.4611 10.95 17.7167C11.2055 17.9722 11.3333 18.2889 11.3333 18.6667C11.3333 19.0444 11.2055 19.3611 10.95 19.6167C10.6944 19.8722 10.3777 20 9.99996 20ZM15.3333 20C14.9555 20 14.6388 19.8722 14.3833 19.6167C14.1277 19.3611 14 19.0444 14 18.6667C14 18.2889 14.1277 17.9722 14.3833 17.7167C14.6388 17.4611 14.9555 17.3333 15.3333 17.3333C15.7111 17.3333 16.0277 17.4611 16.2833 17.7167C16.5388 17.9722 16.6666 18.2889 16.6666 18.6667C16.6666 19.0444 16.5388 19.3611 16.2833 19.6167C16.0277 19.8722 15.7111 20 15.3333 20ZM0.666626 14.6667V12C0.666626 9.64444 1.42218 7.6 2.93329 5.86667C4.4444 4.13333 6.35551 3.11111 8.66663 2.8V0H11.3333V2.8C13.6444 3.11111 15.5555 4.13333 17.0666 5.86667C18.5777 7.6 19.3333 9.64444 19.3333 12V14.6667H0.666626ZM3.33329 12H16.6666C16.6666 10.1556 16.0166 8.58333 14.7166 7.28333C13.4166 5.98333 11.8444 5.33333 9.99996 5.33333C8.15551 5.33333 6.58329 5.98333 5.28329 7.28333C3.98329 8.58333 3.33329 10.1556 3.33329 12ZM4.66663 24C4.28885 24 3.97218 23.8722 3.71663 23.6167C3.46107 23.3611 3.33329 23.0444 3.33329 22.6667C3.33329 22.2889 3.46107 21.9722 3.71663 21.7167C3.97218 21.4611 4.28885 21.3333 4.66663 21.3333C5.0444 21.3333 5.36107 21.4611 5.61663 21.7167C5.87218 21.9722 5.99996 22.2889 5.99996 22.6667C5.99996 23.0444 5.87218 23.3611 5.61663 23.6167C5.36107 23.8722 5.0444 24 4.66663 24ZM9.99996 24C9.62218 24 9.30551 23.8722 9.04996 23.6167C8.7944 23.3611 8.66663 23.0444 8.66663 22.6667C8.66663 22.2889 8.7944 21.9722 9.04996 21.7167C9.30551 21.4611 9.62218 21.3333 9.99996 21.3333C10.3777 21.3333 10.6944 21.4611 10.95 21.7167C11.2055 21.9722 11.3333 22.2889 11.3333 22.6667C11.3333 23.0444 11.2055 23.3611 10.95 23.6167C10.6944 23.8722 10.3777 24 9.99996 24ZM15.3333 24C14.9555 24 14.6388 23.8722 14.3833 23.6167C14.1277 23.3611 14 23.0444 14 22.6667C14 22.2889 14.1277 21.9722 14.3833 21.7167C14.6388 21.4611 14.9555 21.3333 15.3333 21.3333C15.7111 21.3333 16.0277 21.4611 16.2833 21.7167C16.5388 21.9722 16.6666 22.2889 16.6666 22.6667C16.6666 23.0444 16.5388 23.3611 16.2833 23.6167C16.0277 23.8722 15.7111 24 15.3333 24Z" fill="white"/>
</svg>
